<?xml version="1.0" encoding="UTF-8"?>
<svg version="1.1" xmlns="http://www.w3.org/2000/svg" width="222" height="147">
<path d="M0 0 C73.26 0 146.52 0 222 0 C222 48.51 222 97.02 222 147 C148.74 147 75.48 147 0 147 C0 98.49 0 49.98 0 0 Z " fill="#F10103" transform="translate(0,0)"/>
<path d="M0 0 C33 0 66 0 100 0 C100 20.13 100 40.26 100 61 C67 61 34 61 0 61 C0 40.87 0 20.74 0 0 Z " fill="#FCF9F9" transform="translate(122,86)"/>
<path d="M0 0 C33 0 66 0 100 0 C100 20.13 100 40.26 100 61 C67 61 34 61 0 61 C0 40.87 0 20.74 0 0 Z " fill="#F9F6F7" transform="translate(122,0)"/>
<path d="M0 0 C32.67 0 65.34 0 99 0 C99 20.13 99 40.26 99 61 C66.33 61 33.66 61 0 61 C0 40.87 0 20.74 0 0 Z " fill="#FCF9F9" transform="translate(0,86)"/>
<path d="M0 0 C32.67 0 65.34 0 99 0 C99 20.13 99 40.26 99 61 C66.33 61 33.66 61 0 61 C0 40.87 0 20.74 0 0 Z " fill="#FCF9F9" transform="translate(0,0)"/>
<path d="M0 0 C23.43 0 46.86 0 71 0 C65.38095238 5.61904762 65.38095238 5.61904762 62.4609375 7.62109375 C61.80810791 8.07411865 61.15527832 8.52714355 60.48266602 8.99389648 C59.78713623 9.47028564 59.09160645 9.9466748 58.375 10.4375 C52.03345423 14.84585816 45.76757945 19.33899016 39.5625 23.9375 C31.77164529 29.70528425 23.93377003 35.40352683 16.06640625 41.06640625 C13.52442501 42.89670403 10.98945564 44.73566221 8.46484375 46.58984375 C7.46582031 47.32332031 6.46679688 48.05679688 5.4375 48.8125 C4.59058594 49.43769531 3.74367187 50.06289063 2.87109375 50.70703125 C1 52 1 52 0 52 C0 34.84 0 17.68 0 0 Z " fill="#092B6F" transform="translate(126,0)"/>
<path d="M0 0 C23.43 0 46.86 0 71 0 C71 17.16 71 34.32 71 52 C66.14447592 49.22541481 62.23365635 46.77866451 57.9375 43.375 C53.48875243 39.89068425 48.98975756 36.5112915 44.375 33.25 C37.97221366 28.71970107 31.65597569 24.07870933 25.35180664 19.41235352 C21.18228157 16.33056724 16.99897517 13.27102041 12.78515625 10.25 C11.95081055 9.6516333 11.11646484 9.0532666 10.25683594 8.43676758 C8.65146606 7.2878987 7.04410158 6.1418109 5.43457031 4.9987793 C4.72010742 4.48742432 4.00564453 3.97606934 3.26953125 3.44921875 C2.63635986 2.99893311 2.00318848 2.54864746 1.35083008 2.0847168 C0.90505615 1.72676025 0.45928223 1.36880371 0 1 C0 0.67 0 0.34 0 0 Z " fill="#092A6F" transform="translate(24,0)"/>
<path d="M0 0 C6.43248161 4.09339739 12.57228686 8.00899807 18.5625 12.625 C24.25790169 16.9539715 30.00214721 21.20154503 35.8125 25.375 C43.09669613 30.61066485 50.33281346 35.90814552 57.54418945 41.24365234 C58.28628662 41.79230957 59.02838379 42.3409668 59.79296875 42.90625 C60.49856934 43.42832031 61.20416992 43.95039063 61.93115234 44.48828125 C63.95370354 45.96617092 65.99895448 47.40690517 68.05078125 48.84375 C69.02402344 49.5553125 69.99726563 50.266875 71 51 C71 51.33 71 51.66 71 52 C47.57 52 24.14 52 0 52 C0 34.84 0 17.68 0 0 Z " fill="#092B6F" transform="translate(126,95)"/>
<path d="M0 0 C23.1 0 46.2 0 70 0 C64.38095238 5.61904762 64.38095238 5.61904762 61.4609375 7.62109375 C60.48181396 8.30051025 60.48181396 8.30051025 59.48291016 8.99365234 C58.7872998 9.47012207 58.09168945 9.9465918 57.375 10.4375 C51.05865782 14.83022263 44.81005701 19.29914684 38.625 23.875 C37.45142944 24.74306274 37.45142944 24.74306274 36.25415039 25.62866211 C34.65431395 26.81289722 33.05478812 27.99755206 31.45556641 29.18261719 C26.47592709 32.86808498 21.48296409 36.53551421 16.49267578 40.20654297 C15.75903809 40.74682129 15.02540039 41.28709961 14.26953125 41.84375 C13.20919678 42.62298828 13.20919678 42.62298828 12.12744141 43.41796875 C10.65648203 44.51181965 9.19578799 45.61956173 7.74365234 46.73828125 C6.66978271 47.56392578 6.66978271 47.56392578 5.57421875 48.40625 C4.93444092 48.90447266 4.29466309 49.40269531 3.63549805 49.91601562 C2 51 2 51 0 51 C0 34.17 0 17.34 0 0 Z " fill="#0E2F72" transform="translate(0,90)"/>
<path d="M0 0 C20.79 0 41.58 0 63 0 C63 14.52 63 29.04 63 44 C56.47528763 39.84791031 50.07806832 35.74451331 43.8125 31.25 C42.34171395 30.20362807 40.87034576 29.15807399 39.3984375 28.11328125 C38.66592773 27.59330566 37.93341797 27.07333008 37.17871094 26.53759766 C33.78459019 24.14223992 30.36352066 21.78691629 26.9375 19.4375 C26.29119629 18.99374023 25.64489258 18.54998047 24.97900391 18.09277344 C21.50705476 15.71136689 18.02897952 13.33918645 14.546875 10.97265625 C13.81734619 10.47515869 13.08781738 9.97766113 12.33618164 9.46508789 C10.93881409 8.51228677 9.5396539 7.5621076 8.13842773 6.61499023 C5.1369228 4.56597823 2.58164187 2.58164187 0 0 Z " fill="#0F3072" transform="translate(159,90)"/>
<path d="M0 0 C0.33 0 0.66 0 1 0 C1 14.52 1 29.04 1 44 C-19.79 44 -40.58 44 -62 44 C-56.37110834 39.49688667 -56.37110834 39.49688667 -53.6015625 37.546875 C-52.96919678 37.10077881 -52.33683105 36.65468262 -51.68530273 36.19506836 C-51.00540283 35.7181958 -50.32550293 35.24132324 -49.625 34.75 C-48.53264038 33.98151733 -48.53264038 33.98151733 -47.41821289 33.19750977 C-33.53784917 23.44612415 -19.61825974 13.7480993 -5.60717773 4.18530273 C-2.66780457 2.26248883 -2.66780457 2.26248883 0 0 Z " fill="#092A6F" transform="translate(94,103)"/>
<path d="M0 0 C7.87027481 4.49729989 7.87027481 4.49729989 11.49609375 7.06640625 C12.69250488 7.90981567 12.69250488 7.90981567 13.91308594 8.77026367 C14.74614258 9.36170166 15.57919922 9.95313965 16.4375 10.5625 C18.22227744 11.82084996 20.00743835 13.07865618 21.79296875 14.3359375 C22.67388184 14.95694336 23.55479492 15.57794922 24.46240234 16.21777344 C28.04187035 18.731735 31.64256888 21.21389761 35.25 23.6875 C35.88437988 24.12328369 36.51875977 24.55906738 37.17236328 25.00805664 C40.589656 27.35369263 44.01330001 29.68972864 47.44140625 32.01953125 C48.17262695 32.51815674 48.90384766 33.01678223 49.65722656 33.53051758 C51.05704857 34.48492726 52.45864548 35.43674078 53.86230469 36.38549805 C56.86355773 38.43435653 59.41856677 40.41856677 62 43 C41.54 43 21.08 43 0 43 C0 28.81 0 14.62 0 0 Z " fill="#0F3072" transform="translate(0,14)"/>
<path d="M0 0 C0.33 0 0.66 0 1 0 C1 14.19 1 28.38 1 43 C-19.13 43 -39.26 43 -60 43 C-56.55983112 39.55983112 -53.18480605 36.92827548 -49.1875 34.25 C-47.75336586 33.27683755 -46.31980722 32.30282665 -44.88671875 31.328125 C-44.10731934 30.79896484 -43.32791992 30.26980469 -42.52490234 29.72460938 C-37.82719459 26.51588693 -33.16615256 23.25435609 -28.5 20 C-20.89035282 14.69729595 -13.26834871 9.41396258 -5.60742188 4.18554688 C-2.66793842 2.26258953 -2.66793842 2.26258953 0 0 Z " fill="#092C70" transform="translate(221,13)"/>
<path d="M0 0 C0.28149414 2.76660156 0.28149414 2.76660156 0 6 C-1.87329102 7.99121094 -1.87329102 7.99121094 -4.50390625 9.734375 C-5.46458008 10.38559326 -6.42525391 11.03681152 -7.41503906 11.70776367 C-8.97303223 12.71867065 -8.97303223 12.71867065 -10.5625 13.75 C-11.61791992 14.45809814 -12.67333984 15.16619629 -13.76074219 15.89575195 C-16.82858644 17.94918299 -19.91232019 19.97656872 -23 22 C-24.40119007 22.9340256 -25.80116256 23.86988383 -27.19921875 24.80859375 C-29.55057622 26.38595483 -31.90750437 27.95429072 -34.26953125 29.515625 C-38.68840514 32.44635167 -43.06174943 35.44294526 -47.4375 38.4375 C-48.23824951 38.98132324 -49.03899902 39.52514648 -49.86401367 40.08544922 C-53.76989765 42.74583549 -57.62804414 45.44456818 -61.4140625 48.2734375 C-73.71972119 57.35621952 -73.71972119 57.35621952 -81.375 56.38671875 C-81.91125 56.25910156 -82.4475 56.13148438 -83 56 C-80.45358771 53.33866903 -77.95173734 51.1432135 -74.87109375 49.12890625 C-74.02184326 48.56872803 -73.17259277 48.0085498 -72.29760742 47.43139648 C-71.35377197 46.81466064 -70.40993652 46.1979248 -69.4375 45.5625 C-67.29588801 44.14990364 -65.15516897 42.73603253 -63.015625 41.3203125 C-62.41783737 40.92522995 -61.82004974 40.5301474 -61.20414734 40.12309265 C-55.52497213 36.36286251 -49.87811729 32.55533176 -44.234375 28.7421875 C-43.28857071 28.10323044 -42.34276642 27.46427338 -41.36830139 26.80595398 C-37.52509096 24.20880512 -33.68242157 21.61086114 -29.84103394 19.01101685 C-1.74686337 0 -1.74686337 0 0 0 Z " fill="#F10808" transform="translate(95,91)"/>
<path d="M0 0 C9.15335083 -1.30995178 14.29465968 2.01536495 21.5625 7.25 C23.13632446 8.34175537 23.13632446 8.34175537 24.74194336 9.45556641 C27.84433091 11.61484142 30.92389121 13.80351087 34 16 C35.60315423 17.12904312 37.20722088 18.25679261 38.8125 19.3828125 C41.59035558 21.33536768 44.35991889 23.29894025 47.125 25.26953125 C50.89027724 27.94005413 54.71457929 30.51301311 58.5625 33.0625 C59.16078613 33.46227051 59.75907227 33.86204102 60.37548828 34.27392578 C63.72346527 36.50800648 67.09435058 38.69789311 70.4921875 40.85546875 C71.97425767 41.81985263 73.45603538 42.78468615 74.9375 43.75 C75.99529663 44.40367554 75.99529663 44.40367554 77.07446289 45.07055664 C79.02734375 46.359375 79.02734375 46.359375 82 49 C82.44140625 52.328125 82.44140625 52.328125 82 55 C77.19463385 53.41034167 73.53967435 50.69687448 69.49609375 47.75 C59.51147353 40.58988521 49.2995494 33.79198647 39.0625 27 C37.26873223 25.80751424 35.47511203 24.61480645 33.68164062 23.421875 C32.79777679 22.83414307 31.91391296 22.24641113 31.00326538 21.64086914 C29.24768855 20.47348389 27.49217396 19.30600504 25.73672485 18.13842773 C21.38800763 15.24724901 17.03531392 12.36238973 12.67529297 9.48828125 C11.83437607 8.93221191 10.99345917 8.37614258 10.12705994 7.80322266 C8.52927549 6.74670035 6.92970423 5.69287401 5.32814026 4.64208984 C3.53459099 3.45406972 1.76436476 2.23094589 0 1 C0 0.67 0 0.34 0 0 Z " fill="#F10809" transform="translate(140,91)"/>
<path d="M0 0 C0.40234375 2.69921875 0.40234375 2.69921875 0 6 C-2.14504784 7.95963387 -3.99288129 9.31348036 -6.4375 10.8125 C-7.91338908 11.77116827 -9.38860438 12.73087433 -10.86328125 13.69140625 C-11.68135254 14.21492676 -12.49942383 14.73844727 -13.34228516 15.27783203 C-18.33115847 18.51056328 -23.21792118 21.89501008 -28.125 25.25 C-30.27299313 26.71028927 -32.4214334 28.16992104 -34.5703125 29.62890625 C-41.60620425 34.40986805 -48.63334307 39.20363114 -55.65673828 44.00292969 C-57.30839865 45.13037988 -58.96251096 46.25424887 -60.61938477 47.37402344 C-62.2349849 48.47748943 -63.83678877 49.60137612 -65.42553711 50.74316406 C-72.58693575 55.79547022 -72.58693575 55.79547022 -77.5625 55.375 C-78.40941406 55.32085937 -79.25632813 55.26671875 -80.12890625 55.2109375 C-80.74636719 55.14132813 -81.36382812 55.07171875 -82 55 C-78.15108354 51.83565903 -74.14510476 48.9610212 -70.03125 46.15625 C-69.34212524 45.68449341 -68.65300049 45.21273682 -67.94299316 44.72668457 C-57.5653425 37.63552852 -47.12766317 30.63254615 -36.69970703 23.61572266 C-33.93479516 21.75486389 -31.17046621 19.89314195 -28.40625 18.03125 C-27.51977783 17.43489746 -26.63330566 16.83854492 -25.7199707 16.22412109 C-21.51556007 13.39104432 -17.32486632 10.54134757 -13.1640625 7.64453125 C-12.04856018 6.86909973 -12.04856018 6.86909973 -10.91052246 6.07800293 C-9.52743478 5.11389337 -8.14713366 4.14576942 -6.7701416 3.17297363 C-2.21959311 0 -2.21959311 0 0 0 Z " fill="#F10809" transform="translate(222,1)"/>
<path d="M0 0 C10.04267082 6.28859809 19.89290001 12.86363529 29.75 19.4375 C30.61150665 20.01148529 31.47301331 20.58547058 32.36062622 21.17684937 C43.6913883 28.72933106 54.97381639 36.33744996 66.09863281 44.19116211 C70.51062233 47.3022365 74.95073726 50.27381685 79.58618164 53.04370117 C80.0527417 53.35927979 80.51930176 53.6748584 81 54 C81 54.33 81 54.66 81 55 C71.84668461 56.30994671 66.7053145 52.98471112 59.4375 47.75 C57.86693848 46.66041992 57.86693848 46.66041992 56.26464844 45.54882812 C53.16017484 43.38795486 50.07855445 41.19758286 47 39 C45.3617651 37.84741032 43.72254299 36.69622168 42.08203125 35.546875 C39.27014835 33.57242938 36.46609807 31.58763067 33.66796875 29.59375 C30.50016454 27.34326361 27.29728384 25.15358051 24.0625 23 C23.14082031 22.38253906 22.21914063 21.76507812 21.26953125 21.12890625 C18.62209965 19.40507086 15.9545383 17.7405554 13.26171875 16.08984375 C11.5910997 15.03913585 9.92052677 13.98835461 8.25 12.9375 C7.43797119 12.45474609 6.62594238 11.97199219 5.78930664 11.47460938 C3.62732123 10.0984417 1.76533192 8.85936757 0 7 C-0.515625 3.12890625 -0.515625 3.12890625 0 0 Z " fill="#F10809" transform="translate(0,1)"/>
<path d="M0 0 C0.66 0.33 1.32 0.66 2 1 C1.34 1.66 0.68 2.32 0 3 C18.15 3.33 36.3 3.66 55 4 C55 4.33 55 4.66 55 5 C34.87 5 14.74 5 -6 5 C-2 1 -2 1 0 0 Z " fill="#02206A" transform="translate(167,51)"/>
</svg>
